<svg width="12" height="12" viewBox="0 0 12 12" fill="none" xmlns="http://www.w3.org/2000/svg">
<g clip-path="url(#clip0_11149_38981)">
<path d="M11.3 0.7C11.6866 1.0866 11.6866 1.7134 11.3 2.1L7.4 6L11.3 9.9C11.6866 10.2866 11.6866 10.9134 11.3 11.3C10.9134 11.6866 10.2866 11.6866 9.9 11.3L6 7.4L2.1 11.3C1.7134 11.6866 1.0866 11.6866 0.7 11.3C0.3134 10.9134 0.313401 10.2866 0.7 9.9L4.6 6L0.7 2.1C0.3134 1.7134 0.313401 1.0866 0.7 0.7C1.0866 0.313401 1.7134 0.313401 2.1 0.7L6 4.6L9.9 0.7C10.2866 0.313401 10.9134 0.3134 11.3 0.7Z" fill="#A0ABB5"/>
</g>
<defs>
<clipPath id="clip0_11149_38981">
<rect width="12" height="12" fill="white"/>
</clipPath>
</defs>
</svg>
